<?xml version="1.0" encoding="UTF-8"?>
<svg version="1.1" xmlns="http://www.w3.org/2000/svg" width="500" height="500">
<path d="M0 0 C165 0 330 0 500 0 C500 165 500 330 500 500 C335 500 170 500 0 500 C0 335 0 170 0 0 Z " fill="#FEFEFE" transform="translate(0,0)"/>
<path d="M0 0 C6.08932129 5.37522178 9.67308046 12.44441702 10.33984375 20.53125 C10.80181372 31.05638718 9.45534115 40.34575951 2.70703125 48.8046875 C-3.63334552 55.43017757 -12.01744332 59.25883579 -21.19140625 59.765625 C-29.22803994 59.93521725 -36.18721856 60.0009179 -43.10546875 55.4296875 C-43.87246094 54.96691406 -44.63945312 54.50414062 -45.4296875 54.02734375 C-52.55696728 49.209067 -56.06472721 42.57695188 -58.7421875 34.51171875 C-60.56372146 24.07217467 -59.62009685 14.09984096 -53.6328125 5.25390625 C-40.39594563 -11.36258621 -16.35953556 -12.20136047 0 0 Z " fill="#030303" transform="translate(281.10546875,271.5703125)"/>
<path d="M0 0 C5.73375 -0.103125 11.4675 -0.20625 17.375 -0.3125 C20.05761963 -0.38078003 20.05761963 -0.38078003 22.79443359 -0.45043945 C31.49206805 -0.57889422 38.71163568 -0.41125629 46 5 C50.54182393 9.42536691 53.11252115 14.95860317 53.4375 21.3125 C53.18567376 27.46125728 51.41478699 33.39906241 47.17578125 37.96484375 C45.50111924 39.4085179 43.81813436 40.74364873 42 42 C43.48728553 47.42773743 46.09383185 51.64687844 49.125 56.3125 C54 63.89359504 54 63.89359504 54 65 C48.06 65 42.12 65 36 65 C34.32818524 62.04447033 32.66237821 59.08583038 31 56.125 C30.52304687 55.28324219 30.04609375 54.44148438 29.5546875 53.57421875 C29.10351562 52.76855469 28.65234375 51.96289062 28.1875 51.1328125 C27.76855469 50.38918457 27.34960938 49.64555664 26.91796875 48.87939453 C26 47 26 47 26 45 C22.37 45 18.74 45 15 45 C15 51.6 15 58.2 15 65 C10.05 65 5.1 65 0 65 C0 43.55 0 22.1 0 0 Z " fill="#050505" transform="translate(303,265)"/>
<path d="M0 0 C8.58 0 17.16 0 26 0 C26 28.71 26 57.42 26 87 C17.42 87 8.84 87 0 87 C0 58.29 0 29.58 0 0 Z " fill="#D8AE5E" transform="translate(301,163)"/>
<path d="M0 0 C14.19 0 28.38 0 43 0 C43 3.96 43 7.92 43 12 C33.43 12 23.86 12 14 12 C14 16.62 14 21.24 14 26 C22.58 26 31.16 26 40 26 C40 29.96 40 33.92 40 38 C31.75 38 23.5 38 15 38 C15 42.62 15 47.24 15 52 C24.57 52 34.14 52 44 52 C44 56.29 44 60.58 44 65 C29.48 65 14.96 65 0 65 C0 43.55 0 22.1 0 0 Z " fill="#030303" transform="translate(85,265)"/>
<path d="M0 0 C7.26 0 14.52 0 22 0 C22 23.76 22 47.52 22 72 C14.74 72 7.48 72 0 72 C0 48.24 0 24.48 0 0 Z " fill="#D8AE5E" transform="translate(213,178)"/>
<path d="M0 0 C18.48 0 36.96 0 56 0 C56 4.29 56 8.58 56 13 C49.4 13 42.8 13 36 13 C36 30.16 36 47.32 36 65 C31.05 65 26.1 65 21 65 C21 47.84 21 30.68 21 13 C14.07 13 7.14 13 0 13 C0 8.71 0 4.42 0 0 Z " fill="#030303" transform="translate(364,265)"/>
<path d="M0 0 C8.58 0 17.16 0 26 0 C26 18.48 26 36.96 26 56 C17.42 56 8.84 56 0 56 C0 37.52 0 19.04 0 0 Z " fill="#D8AE5E" transform="translate(255,194)"/>
<path d="M0 0 C4.95 0 9.9 0 15 0 C15 16.83 15 33.66 15 51 C24.57 51 34.14 51 44 51 C44 55.62 44 60.24 44 65 C29.48 65 14.96 65 0 65 C0 43.55 0 22.1 0 0 Z " fill="#050505" transform="translate(141,265)"/>
<path d="M0 0 C7.92 0 15.84 0 24 0 C24 18.81 24 37.62 24 57 C16.08 57 8.16 57 0 57 C0 38.19 0 19.38 0 0 Z " fill="#D8AE5F" transform="translate(173,193)"/>
<path d="M0 0 C5.71976633 5.43377802 8.62762928 9.44683766 8.875 17.5625 C8.80523414 23.83445115 7.88128283 27.82190216 3.5 32.375 C-0.84574378 36.55675345 -4.95175958 37.74819624 -10.9375 38.0625 C-17.49000232 37.80374846 -21.76250132 35.86818821 -26.5 31.375 C-30.9807952 25.49395631 -31.38405087 18.55667167 -30.5 11.375 C-28.44869637 6.2424851 -25.16138284 2.36306593 -20.5 -0.625 C-14.08510711 -2.73948585 -6.08610406 -2.82569117 0 0 Z " fill="#FBFBFB" transform="translate(267.5,279.625)"/>
<path d="M0 0 C1.10589478 0.00616333 1.10589478 0.00616333 2.23413086 0.01245117 C3.0352832 0.01438477 3.83643555 0.01631836 4.66186523 0.01831055 C5.49911133 0.03055664 6.33635742 0.04280273 7.19897461 0.05541992 C8.46064453 0.05638672 8.46064453 0.05638672 9.74780273 0.05737305 C15.99624277 0.10268808 15.99624277 0.10268808 17.13647461 1.24291992 C17.47132492 5.94477635 16.59165898 9.66141779 15.13647461 14.11791992 C14.57959961 15.84655273 14.57959961 15.84655273 14.01147461 17.61010742 C13.72272461 18.47893555 13.43397461 19.34776367 13.13647461 20.24291992 C11.48647461 20.24291992 9.83647461 20.24291992 8.13647461 20.24291992 C7.44939906 17.75227104 7.13647461 15.86405701 7.13647461 13.24291992 C5.52736955 14.53020397 3.91828984 15.81751971 2.30932617 17.10498047 C0.93932752 18.20075073 -0.43111849 19.2959619 -1.80200195 20.390625 C-4.8720498 22.84311367 -7.93939719 25.2978143 -10.98071289 27.78588867 C-11.84954102 28.49358398 -12.71836914 29.2012793 -13.61352539 29.93041992 C-14.75047852 30.8643457 -14.75047852 30.8643457 -15.91040039 31.81713867 C-25.14920481 38.5614659 -46.67315689 32.42291348 -57.64575195 31.25952148 C-61.38285281 30.8768348 -65.11875818 30.54083096 -68.86352539 30.24291992 C-69.96269287 30.15252441 -71.06186035 30.06212891 -72.19433594 29.96899414 C-79.47159097 29.63158114 -83.44320694 30.91791741 -89.05102539 35.49291992 C-90.495959 36.58717041 -91.94128398 37.68090427 -93.38696289 38.77416992 C-94.11753906 39.34264648 -94.84811523 39.91112305 -95.60083008 40.49682617 C-99.3922262 43.42259927 -103.28031207 46.20852294 -107.17602539 48.99291992 C-107.88718506 49.51789063 -108.59834473 50.04286133 -109.33105469 50.58374023 C-110.3313269 51.3044873 -110.3313269 51.3044873 -111.35180664 52.03979492 C-111.93486572 52.46615234 -112.5179248 52.89250977 -113.11865234 53.33178711 C-114.86352539 54.24291992 -114.86352539 54.24291992 -118.86352539 54.24291992 C-119.52352539 52.92291992 -120.18352539 51.60291992 -120.86352539 50.24291992 C-119.76196289 49.44734701 -118.66040039 48.65177409 -117.55883789 47.85620117 C-116.83833252 47.33582275 -116.11782715 46.81544434 -115.37548828 46.27929688 C-113.7705592 45.12020879 -112.16557787 43.96119306 -110.56054688 42.80224609 C-106.29443636 39.72165123 -102.02920647 36.6398518 -97.76586914 33.55541992 C-96.95424316 32.96849365 -96.14261719 32.38156738 -95.30639648 31.77685547 C-93.74260006 30.64594998 -92.17911377 29.51461549 -90.6159668 28.3828125 C-89.9048877 27.86871826 -89.19380859 27.35462402 -88.46118164 26.82495117 C-87.83735596 26.3735376 -87.21353027 25.92212402 -86.57080078 25.45703125 C-82.9634176 22.89167782 -81.40901768 21.99838971 -77.01586914 22.37963867 C-75.53763672 22.50169678 -75.53763672 22.50169678 -74.02954102 22.6262207 C-72.96413086 22.72660645 -71.8987207 22.82699219 -70.80102539 22.93041992 C-69.70081055 23.02564941 -68.6005957 23.12087891 -67.46704102 23.21899414 C-58.16831644 24.05177465 -48.89459209 25.1045226 -39.6328125 26.27685547 C-36.71208561 26.63711624 -33.79242533 26.95723065 -30.86352539 27.24291992 C-29.62276245 27.37089966 -29.62276245 27.37089966 -28.35693359 27.50146484 C-23.3463047 27.79546256 -20.56910559 27.00402749 -16.7019043 23.78710938 C-16.15711426 23.29815186 -15.61232422 22.80919434 -15.05102539 22.30541992 C-13.85558714 21.29881293 -12.65894851 20.29362996 -11.46118164 19.28979492 C-10.86708496 18.78125977 -10.27298828 18.27272461 -9.66088867 17.7487793 C-6.85730052 15.39988882 -3.92992201 13.22741214 -0.98852539 11.05541992 C-0.00110352 10.31936523 0.98631836 9.58331055 2.00366211 8.82495117 C2.70749023 8.30288086 3.41131836 7.78081055 4.13647461 7.24291992 C1.82647461 6.91291992 -0.48352539 6.58291992 -2.86352539 6.24291992 C-3.48852539 4.36791992 -3.48852539 4.36791992 -3.86352539 2.24291992 C-1.86352539 0.24291992 -1.86352539 0.24291992 0 0 Z " fill="#0B0B0B" transform="translate(305.863525390625,121.757080078125)"/>
<path d="M0 0 C4.95 0 9.9 0 15 0 C15 21.45 15 42.9 15 65 C10.05 65 5.1 65 0 65 C0 43.55 0 22.1 0 0 Z " fill="#030303" transform="translate(195,265)"/>
<path d="M0 0 C3.526875 -0.12375 3.526875 -0.12375 7.125 -0.25 C7.85348145 -0.28641602 8.58196289 -0.32283203 9.33251953 -0.36035156 C14.40007317 -0.44556673 17.13527027 0.81188467 21 4 C23.33909307 7.5086396 23.41291057 8.87089433 23 13 C21.33237678 16.49406769 20.25993978 17.82670681 17 20 C15.09887695 20.22705078 15.09887695 20.22705078 12.98828125 20.1953125 C12.30548096 20.19031738 11.62268066 20.18532227 10.91918945 20.18017578 C10.05898193 20.16196777 9.19877441 20.14375977 8.3125 20.125 C4.1978125 20.063125 4.1978125 20.063125 0 20 C0 13.4 0 6.8 0 0 Z " fill="#F8F8F8" transform="translate(318,277)"/>
<path d="M0 0 C6.15234375 -0.09765625 6.15234375 -0.09765625 8 0 C9 1 9 1 9.125 3.9375 C9 7 9 7 8 9 C8.89163577 11.11683841 8.89163577 11.11683841 10 13 C9.01 13 8.02 13 7 13 C6.34 11.35 5.68 9.7 5 8 C4.01 8 3.02 8 2 8 C2 9.65 2 11.3 2 13 C1.34 13 0.68 13 0 13 C0 8.71 0 4.42 0 0 Z " fill="#373A40" transform="translate(264,347)"/>
<path d="M0 0 C6.75 -0.125 6.75 -0.125 9 1 C9.125 3.875 9.125 3.875 9 7 C7 9 7 9 4.375 9.125 C3.59125 9.08375 2.8075 9.0425 2 9 C2 10.32 2 11.64 2 13 C1.34 13 0.68 13 0 13 C0 8.71 0 4.42 0 0 Z " fill="#36393F" transform="translate(249,347)"/>
<path d="M0 0 C0.66 0 1.32 0 2 0 C3.65 4.29 5.3 8.58 7 13 C6.01 12.67 5.02 12.34 4 12 C4 11.34 4 10.68 4 10 C1.69 10 -0.62 10 -3 10 C-3 10.99 -3 11.98 -3 13 C-3.66 13 -4.32 13 -5 13 C-4.54803755 11.39402675 -4.08817673 9.79027492 -3.625 8.1875 C-3.36976563 7.29417969 -3.11453125 6.40085937 -2.8515625 5.48046875 C-2 3 -2 3 0 0 Z " fill="#515458" transform="translate(200,347)"/>
<path d="M0 0 C2.64 0 5.28 0 8 0 C8 0.66 8 1.32 8 2 C6.02 2 4.04 2 2 2 C2 2.99 2 3.98 2 5 C3.65 5 5.3 5 7 5 C7 5.66 7 6.32 7 7 C5.35 7 3.7 7 2 7 C2 8.32 2 9.64 2 11 C3.98 11 5.96 11 8 11 C8 11.66 8 12.32 8 13 C5.36 13 2.72 13 0 13 C0 8.71 0 4.42 0 0 Z " fill="#3A3D43" transform="translate(335,347)"/>
<path d="M0 0 C0.99 0.66 1.98 1.32 3 2 C2.67 2.66 2.34 3.32 2 4 C1.67 3.67 1.34 3.34 1 3 C-1.33297433 2.95907063 -3.66705225 2.95758277 -6 3 C-6 5.64 -6 8.28 -6 11 C-3.6568787 10.74438677 -1.32156597 10.40729228 1 10 C1.33 9.34 1.66 8.68 2 8 C2.66 8 3.32 8 4 8 C2.125 11.875 2.125 11.875 1 13 C-5.16698656 13.45681382 -5.16698656 13.45681382 -7.9375 11.9375 C-9.6140629 8.88023824 -9.36528977 6.4093712 -9 3 C-6.83464775 -0.72921777 -4.01926187 -0.41867311 0 0 Z " fill="#36393E" transform="translate(302,347)"/>
<path d="M0 0 C1.4540625 0.0309375 1.4540625 0.0309375 2.9375 0.0625 C3.2675 1.3825 3.5975 2.7025 3.9375 4.0625 C2.9475 3.4025 1.9575 2.7425 0.9375 2.0625 C-0.0525 2.0625 -1.0425 2.0625 -2.0625 2.0625 C-2.3925 3.0525 -2.7225 4.0425 -3.0625 5.0625 C-0.7525 5.7225 1.5575 6.3825 3.9375 7.0625 C4.5625 8.9375 4.5625 8.9375 4.9375 11.0625 C2.9375 13.0625 2.9375 13.0625 -0.1875 13.1875 C-1.13625 13.14625 -2.085 13.105 -3.0625 13.0625 C-3.7225 11.7425 -4.3825 10.4225 -5.0625 9.0625 C-4.4025 9.0625 -3.7425 9.0625 -3.0625 9.0625 C-3.0625 9.7225 -3.0625 10.3825 -3.0625 11.0625 C-1.0825 11.0625 0.8975 11.0625 2.9375 11.0625 C0.57129989 8.44722619 -2.004548 6.79809438 -5.0625 5.0625 C-3.9375 0.08035714 -3.9375 0.08035714 0 0 Z " fill="#3D4045" transform="translate(171.0625,346.9375)"/>
<path d="M0 0 C1.4540625 0.0309375 1.4540625 0.0309375 2.9375 0.0625 C3.5975 1.3825 4.2575 2.7025 4.9375 4.0625 C4.2775 4.0625 3.6175 4.0625 2.9375 4.0625 C2.6075 3.4025 2.2775 2.7425 1.9375 2.0625 C0.2875 2.0625 -1.3625 2.0625 -3.0625 2.0625 C-2.15986138 4.40126424 -2.15986138 4.40126424 0.9375 5.375 C3.9375 7.0625 3.9375 7.0625 4.875 9.6875 C4.895625 10.47125 4.91625 11.255 4.9375 12.0625 C3.9375 13.0625 3.9375 13.0625 0.375 13.125 C-0.759375 13.104375 -1.89375 13.08375 -3.0625 13.0625 C-3.3925 11.7425 -3.7225 10.4225 -4.0625 9.0625 C-1.7525 9.7225 0.5575 10.3825 2.9375 11.0625 C2.9375 10.0725 2.9375 9.0825 2.9375 8.0625 C0.6275 7.4025 -1.6825 6.7425 -4.0625 6.0625 C-4.105221 4.39638095 -4.10313832 2.72867115 -4.0625 1.0625 C-3.0625 0.0625 -3.0625 0.0625 0 0 Z " fill="#33363C" transform="translate(324.0625,346.9375)"/>
<path d="M0 0 C0.66 0 1.32 0 2 0 C2.33 1.65 2.66 3.3 3 5 C2.01 4.67 1.02 4.34 0 4 C-0.33 5.65 -0.66 7.3 -1 9 C0.98 8.67 2.96 8.34 5 8 C5.66 9.65 6.32 11.3 7 13 C6.34 13 5.68 13 5 13 C4.67 12.34 4.34 11.68 4 11 C2.02 11 0.04 11 -2 11 C-2.33 11.66 -2.66 12.32 -3 13 C-3.66 13 -4.32 13 -5 13 C-4.54554036 11.58208592 -4.08625056 10.16571954 -3.625 8.75 C-3.24214844 7.56664062 -3.24214844 7.56664062 -2.8515625 6.359375 C-2.04826333 4.13372042 -1.10288338 2.09068328 0 0 Z " fill="#292D33" transform="translate(230,347)"/>
<path d="M0 0 C0.66 0 1.32 0 2 0 C2.33 1.65 2.66 3.3 3 5 C2.01 4.67 1.02 4.34 0 4 C-0.33 5.65 -0.66 7.3 -1 9 C0.98 8.67 2.96 8.34 5 8 C5.66 9.65 6.32 11.3 7 13 C6.34 13 5.68 13 5 13 C4.67 12.34 4.34 11.68 4 11 C2.02 11 0.04 11 -2 11 C-2.33 11.66 -2.66 12.32 -3 13 C-3.66 13 -4.32 13 -5 13 C-4.54554036 11.58208592 -4.08625056 10.16571954 -3.625 8.75 C-3.24214844 7.56664062 -3.24214844 7.56664062 -2.8515625 6.359375 C-2.04826333 4.13372042 -1.10288338 2.09068328 0 0 Z " fill="#292D33" transform="translate(147,347)"/>
<path d="M0 0 C3.63 0 7.26 0 11 0 C11 0.66 11 1.32 11 2 C9.68 2 8.36 2 7 2 C7 5.63 7 9.26 7 13 C6.34 13 5.68 13 5 13 C5 9.37 5 5.74 5 2 C3.35 2 1.7 2 0 2 C0 1.34 0 0.68 0 0 Z " fill="#3C3F45" transform="translate(210,347)"/>
<path d="M0 0 C0.66 0 1.32 0 2 0 C2 3.63 2 7.26 2 11 C3.98 11 5.96 11 8 11 C8 11.66 8 12.32 8 13 C5.36 13 2.72 13 0 13 C0 8.71 0 4.42 0 0 Z " fill="#35383D" transform="translate(130,347)"/>
<path d="M0 0 C1.65 0 3.3 0 5 0 C5.5625 1.9375 5.5625 1.9375 6 4 C5 5 5 5 2.4375 5.0625 C1.2309375 5.0315625 1.2309375 5.0315625 0 5 C0 3.35 0 1.7 0 0 Z " fill="#E9EAEA" transform="translate(266,349)"/>
<path d="M0 0 C1.65 0 3.3 0 5 0 C5.5625 1.9375 5.5625 1.9375 6 4 C5 5 5 5 2.4375 5.0625 C1.2309375 5.0315625 1.2309375 5.0315625 0 5 C0 3.35 0 1.7 0 0 Z " fill="#F7F7F7" transform="translate(251,349)"/>
<path d="M0 0 C0.94875 0.04125 1.8975 0.0825 2.875 0.125 C3.205 1.445 3.535 2.765 3.875 4.125 C2.885 3.465 1.895 2.805 0.875 2.125 C-0.115 2.125 -1.105 2.125 -2.125 2.125 C-2.455 3.115 -2.785 4.105 -3.125 5.125 C-1.805 5.785 -0.485 6.445 0.875 7.125 C-0.775 6.795 -2.425 6.465 -4.125 6.125 C-4.75 4.25 -4.75 4.25 -5.125 2.125 C-3.125 0.125 -3.125 0.125 0 0 Z " fill="#282C32" transform="translate(171.125,346.875)"/>
<path d="M0 0 C0.33 0 0.66 0 1 0 C1.125 4.75 1.125 4.75 0 7 C0.89163577 9.11683841 0.89163577 9.11683841 2 11 C1.01 11 0.02 11 -1 11 C-1.2475 10.195625 -1.495 9.39125 -1.75 8.5625 C-2.72238859 5.828919 -2.72238859 5.828919 -5.125 5.1875 C-5.74375 5.125625 -6.3625 5.06375 -7 5 C-5.02 4.67 -3.04 4.34 -1 4 C-0.67 2.68 -0.34 1.36 0 0 Z " fill="#23262C" transform="translate(272,349)"/>
<path d="M0 0 C1.32 0 2.64 0 4 0 C4.5625 1.9375 4.5625 1.9375 5 4 C4 5 4 5 1.4375 5.0625 C0.2309375 5.0315625 0.2309375 5.0315625 -1 5 C-0.67 3.35 -0.34 1.7 0 0 Z " fill="#A3A4A6" transform="translate(230,351)"/>
<path d="M0 0 C1.32 0 2.64 0 4 0 C4.5625 1.9375 4.5625 1.9375 5 4 C4 5 4 5 1.4375 5.0625 C0.2309375 5.0315625 0.2309375 5.0315625 -1 5 C-0.67 3.35 -0.34 1.7 0 0 Z " fill="#A3A4A6" transform="translate(147,351)"/>
</svg>
